<svg width="590" height="118" viewBox="0 0 590 118" fill="none" xmlns="http://www.w3.org/2000/svg">
<path d="M190.972 82.1351L175.948 61.1673H169.261L188.33 37.3103H200.3L182.717 59.3512L182.964 53.5727L203.932 82.1351H190.972ZM159.603 82.1351V21.8733H171.077V82.1351H159.603ZM229.16 83.7036C225.308 83.7036 221.923 83.0432 219.007 81.7224C216.145 80.4016 213.751 78.6405 211.825 76.4392C209.954 74.1828 208.523 71.6787 207.532 68.9271C206.596 66.1754 206.129 63.3687 206.129 60.5069V58.9385C206.129 55.9667 206.596 53.1049 207.532 50.3532C208.523 47.5465 209.954 45.07 211.825 42.9237C213.751 40.7223 216.117 38.9888 218.924 37.723C221.731 36.4022 224.978 35.7418 228.665 35.7418C233.508 35.7418 237.553 36.815 240.8 38.9613C244.102 41.0525 246.578 43.8317 248.229 47.2989C249.88 50.7109 250.706 54.3982 250.706 58.3606V62.4881H210.999V55.4714H243.524L239.974 58.9385C239.974 56.0767 239.562 53.6277 238.736 51.5915C237.911 49.5552 236.645 47.9868 234.939 46.8861C233.288 45.7854 231.197 45.2351 228.665 45.2351C226.133 45.2351 223.987 45.813 222.226 46.9687C220.465 48.1244 219.117 49.8029 218.181 52.0042C217.301 54.1505 216.86 56.7371 216.86 59.764C216.86 62.5707 217.301 65.0747 218.181 67.2761C219.062 69.4224 220.41 71.1284 222.226 72.3942C224.042 73.6049 226.354 74.2103 229.16 74.2103C231.967 74.2103 234.251 73.66 236.012 72.5593C237.773 71.4036 238.901 70.0002 239.397 68.3492H249.963C249.303 71.4311 248.037 74.1277 246.166 76.4392C244.295 78.7506 241.901 80.5392 238.984 81.8049C236.122 83.0707 232.848 83.7036 229.16 83.7036ZM258.568 99.8009V89.9774H266.988C268.584 89.9774 269.904 89.7573 270.95 89.317C272.051 88.9318 272.959 88.2714 273.674 87.3358C274.39 86.4553 274.94 85.217 275.325 83.621L287.378 37.3103H298.357L285.066 86.0975C284.186 89.4546 282.947 92.1237 281.351 94.1049C279.755 96.1412 277.692 97.5996 275.16 98.4801C272.684 99.3606 269.602 99.8009 265.915 99.8009H258.568ZM272.519 81.1445V72.064H282.094V81.1445H272.519ZM268.639 81.1445L254.11 37.3103H265.667L279.453 81.1445H268.639ZM326.53 82.713C322.403 82.713 318.991 82.1902 316.294 81.1445C313.653 80.0439 311.671 78.2277 310.351 75.6962C309.03 73.1096 308.369 69.6425 308.369 65.2948L308.452 24.6801H319.183L319.101 66.0378C319.101 68.2391 319.679 69.9452 320.834 71.1559C322.045 72.3116 323.751 72.8895 325.953 72.8895H332.969V82.713H326.53ZM301.27 45.7304V37.3103H332.969V45.7304H301.27ZM362.253 83.7036C358.345 83.7036 354.961 83.0432 352.099 81.7224C349.292 80.4016 346.926 78.6405 345 76.4392C343.129 74.2378 341.725 71.7613 340.79 69.0096C339.854 66.2579 339.386 63.4512 339.386 60.5895V59.021C339.386 55.9942 339.854 53.1049 340.79 50.3532C341.78 47.5465 343.239 45.07 345.165 42.9237C347.091 40.7223 349.457 38.9888 352.264 37.723C355.126 36.4022 358.428 35.7418 362.17 35.7418C366.078 35.7418 369.572 36.5123 372.654 38.0532C375.736 39.5391 378.185 41.6304 380.001 44.327C381.872 47.0237 382.918 50.1606 383.138 53.7378H371.994C371.719 51.4264 370.728 49.5002 369.022 47.9593C367.371 46.4183 365.087 45.6479 362.17 45.6479C359.639 45.6479 357.52 46.2532 355.814 47.464C354.163 48.6747 352.925 50.3532 352.099 52.4995C351.274 54.5908 350.861 57.0123 350.861 59.764C350.861 62.4056 351.246 64.7995 352.017 66.9459C352.842 69.0922 354.08 70.7707 355.731 71.9814C357.437 73.1922 359.611 73.7975 362.253 73.7975C364.234 73.7975 365.94 73.4398 367.371 72.7244C368.802 72.0089 369.93 71.0183 370.755 69.7526C371.636 68.4868 372.186 67.0559 372.406 65.4599H383.551C383.331 69.0922 382.257 72.2841 380.331 75.0358C378.46 77.7324 375.956 79.8512 372.819 81.3922C369.737 82.9331 366.215 83.7036 362.253 83.7036ZM392.743 82.1351V21.8733H404.217V57.0398H402.236C402.236 52.5271 402.814 48.7022 403.97 45.5653C405.125 42.4284 406.832 40.0344 409.088 38.3834C411.399 36.7324 414.316 35.9069 417.838 35.9069H418.334C423.452 35.9069 427.332 37.668 429.973 41.1901C432.615 44.7123 433.936 49.8304 433.936 56.5445V82.1351H422.461V55.4714C422.461 52.6096 421.636 50.3532 419.985 48.7022C418.389 47.0512 416.27 46.2257 413.628 46.2257C410.821 46.2257 408.538 47.1613 406.776 49.0324C405.07 50.8485 404.217 53.2425 404.217 56.2143V82.1351H392.743ZM466.331 83.7036C462.479 83.7036 459.094 83.0432 456.178 81.7224C453.316 80.4016 450.922 78.6405 448.996 76.4392C447.125 74.1828 445.694 71.6787 444.703 68.9271C443.768 66.1754 443.3 63.3687 443.3 60.5069V58.9385C443.3 55.9667 443.768 53.1049 444.703 50.3532C445.694 47.5465 447.125 45.07 448.996 42.9237C450.922 40.7223 453.288 38.9888 456.095 37.723C458.902 36.4022 462.149 35.7418 465.836 35.7418C470.679 35.7418 474.724 36.815 477.971 38.9613C481.273 41.0525 483.75 43.8317 485.401 47.2989C487.052 50.7109 487.877 54.3982 487.877 58.3606V62.4881H448.17V55.4714H480.695L477.146 58.9385C477.146 56.0767 476.733 53.6277 475.907 51.5915C475.082 49.5552 473.816 47.9868 472.11 46.8861C470.459 45.7854 468.368 45.2351 465.836 45.2351C463.305 45.2351 461.158 45.813 459.397 46.9687C457.636 48.1244 456.288 49.8029 455.352 52.0042C454.472 54.1505 454.031 56.7371 454.031 59.764C454.031 62.5707 454.472 65.0747 455.352 67.2761C456.233 69.4224 457.581 71.1284 459.397 72.3942C461.213 73.6049 463.525 74.2103 466.331 74.2103C469.138 74.2103 471.422 73.66 473.183 72.5593C474.944 71.4036 476.072 70.0002 476.568 68.3492H487.134C486.474 71.4311 485.208 74.1277 483.337 76.4392C481.466 78.7506 479.072 80.5392 476.155 81.8049C473.293 83.0707 470.019 83.7036 466.331 83.7036ZM497.463 82.1351V37.3103H506.543V56.5445H505.718C505.718 51.9767 506.323 48.1794 507.534 45.1526C508.744 42.0707 510.533 39.7593 512.9 38.2183C515.321 36.6774 518.32 35.9069 521.898 35.9069H522.393C527.731 35.9069 531.776 37.6405 534.528 41.1076C537.279 44.5197 538.655 49.6378 538.655 56.462V82.1351H527.181V55.4714C527.181 52.7197 526.383 50.4908 524.787 48.7848C523.246 47.0787 521.1 46.2257 518.348 46.2257C515.541 46.2257 513.257 47.1062 511.496 48.8673C509.79 50.5734 508.937 52.8848 508.937 55.8016V82.1351H497.463ZM567.254 83.5385C561.09 83.5385 556.247 82.2452 552.725 79.6586C549.258 77.017 547.442 73.3848 547.277 68.762H557.595C557.76 70.3029 558.614 71.7063 560.154 72.972C561.695 74.2378 564.117 74.8707 567.419 74.8707C570.171 74.8707 572.344 74.3754 573.94 73.3848C575.591 72.3942 576.417 71.0459 576.417 69.3398C576.417 67.8539 575.784 66.6707 574.518 65.7901C573.307 64.9096 571.216 64.3318 568.244 64.0566L564.282 63.6438C559.274 63.0935 555.422 61.6626 552.725 59.3512C550.028 57.0398 548.68 53.9579 548.68 50.1056C548.68 47.0237 549.45 44.4371 550.991 42.3458C552.532 40.2546 554.651 38.6861 557.348 37.6405C560.099 36.5398 563.236 35.9895 566.758 35.9895C572.262 35.9895 576.72 37.2002 580.132 39.6217C583.544 42.0432 585.332 45.5928 585.497 50.2707H575.179C575.069 48.7297 574.298 47.4089 572.867 46.3083C571.436 45.2076 569.373 44.6572 566.676 44.6572C564.254 44.6572 562.383 45.125 561.063 46.0606C559.742 46.9962 559.081 48.2069 559.081 49.6928C559.081 51.1237 559.604 52.2244 560.65 52.9948C561.75 53.7653 563.512 54.2881 565.933 54.5633L569.895 54.976C575.179 55.5264 579.306 56.9848 582.278 59.3512C585.305 61.7177 586.818 64.9096 586.818 68.9271C586.818 71.8989 585.993 74.4855 584.342 76.6868C582.746 78.8331 580.489 80.5116 577.573 81.7224C574.656 82.9331 571.216 83.5385 567.254 83.5385Z" fill="white"/>
<g clip-path="url(#clip0_179_181675)">
<path d="M0 59C9.09358 49.7069 18.1872 40.8461 27.4972 31.5531C27.4972 32.2014 27.4972 32.8498 27.4972 33.7143C27.4972 44.5201 27.4972 55.5421 27.4972 66.348C27.4972 73.4798 31.8275 78.8828 38.756 80.3956C43.7358 81.4762 48.0661 79.9633 51.5303 76.5055C56.0771 72.1831 60.4073 67.6447 64.7376 63.3223C65.1706 62.8901 65.6037 62.2417 65.8202 62.0256C74.2642 70.4542 82.4917 78.6666 90.5028 86.663C80.1101 97.0366 69.5009 107.626 58.6752 118.216C39.4055 98.3333 19.7028 78.6666 0 59Z" fill="#00C896"/>
<path d="M41.7871 65.9157C41.7871 49.707 41.7871 33.2821 41.7871 17.2894C47.633 11.4542 53.4789 5.61905 59.1082 0C67.1192 7.99634 75.3467 16.2088 83.3577 24.2051C69.7174 38.0366 55.644 52.0842 41.7871 65.9157Z" fill="#00C896"/>
<path d="M76.8623 51.652C82.4917 46.033 88.3375 40.1978 93.9669 34.5788C101.978 42.5751 109.989 50.5715 118 58.5678C112.371 64.1868 106.525 70.022 100.895 75.6411C93.1008 67.8608 84.8733 59.8645 76.8623 51.652Z" fill="#00C896"/>
</g>
<defs>
<clipPath id="clip0_179_181675">
<rect width="118" height="118" fill="white"/>
</clipPath>
</defs>
</svg>
